<svg width="74" height="87" viewBox="0 0 74 87" fill="none" xmlns="http://www.w3.org/2000/svg">
<path d="M31.588 75.7233L25.0925 86.9757L22.4446 80.0089C22.1136 79.1394 21.1828 78.6529 20.2726 78.8599L12.5566 80.7129L19.6106 68.4771C21.131 68.5495 22.5687 68.7048 23.6548 69.1603C25.0821 69.7503 26.5508 71.1685 28.1023 72.6592C29.1883 73.7047 30.3364 74.8123 31.588 75.7233Z" fill="#FF0000"/>
<path d="M61.3762 80.7129L53.6602 78.8599C52.75 78.6529 51.8191 79.1394 51.4882 80.0089L48.8403 86.9757L42.3448 75.7233C43.5963 74.8123 44.7444 73.7047 45.8305 72.6592C47.3819 71.1685 48.8507 69.7503 50.278 69.1603C51.364 68.7048 52.8017 68.5495 54.3222 68.4771L61.3762 80.7129Z" fill="#FF0000"/>
<path d="M69.9093 30.7034C68.244 28.9747 66.5271 27.1838 65.6583 25.1135C64.7584 22.9396 64.6963 20.393 64.6343 17.919C64.5515 14.9894 64.4791 12.2358 63.0932 10.8487C61.7072 9.46154 58.9559 9.38908 56.0391 9.30626C53.5671 9.24415 51.0124 9.18204 48.8403 8.28144C46.7717 7.41189 44.9823 5.69349 43.255 4.02685C41.1036 1.95649 39.066 0 36.9664 0C34.8667 0 32.8291 1.95649 30.6778 4.02685C28.9504 5.69349 27.1611 7.41189 25.0925 8.28144C22.9204 9.18204 20.3656 9.24415 17.8936 9.30626C14.9769 9.38908 12.2256 9.46154 10.8396 10.8487C9.45363 12.2358 9.38123 14.9894 9.29848 17.919C9.23642 20.393 9.17437 22.9396 8.27451 25.1135C7.40569 27.1838 5.68873 28.9747 4.02348 30.7034C1.95485 32.8566 0 34.8959 0 36.9973C0 39.0987 1.95485 41.138 4.02348 43.2912C5.68873 45.02 7.40569 46.8108 8.27451 48.8812C9.17437 51.0551 9.23642 53.612 9.29848 56.086C9.38123 59.0052 9.45363 61.7588 10.8396 63.1563C12.2256 64.5435 14.9769 64.6056 17.8936 64.6884C20.3656 64.7505 22.9204 64.823 25.0925 65.7236C27.1611 66.5828 28.9504 68.3012 30.6778 69.9678C32.8291 72.0485 34.8667 74.005 36.9664 74.005C39.066 74.005 41.1036 72.0485 43.255 69.9678C44.9823 68.3012 46.7717 66.5828 48.8403 65.7236C51.0124 64.823 53.5671 64.7505 56.0391 64.6884C58.9559 64.6056 61.7072 64.5435 63.0932 63.1563C64.4791 61.7588 64.5515 59.0052 64.6343 56.086C64.6963 53.612 64.7584 51.0551 65.6583 48.8812C66.5271 46.8108 68.244 45.02 69.9093 43.2912C71.9779 41.138 73.9328 39.1091 73.9328 36.9973C73.9328 34.8959 71.9779 32.8566 69.9093 30.7034ZM36.9664 62.8354C22.7342 62.8354 11.1499 51.2414 11.1499 36.9973C11.1499 22.7532 22.7342 11.1696 36.9664 11.1696C51.1985 11.1696 62.7829 22.7532 62.7829 36.9973C62.7829 51.2414 51.1985 62.8354 36.9664 62.8354Z" fill="#FF0000"/>
<circle cx="36.7852" cy="37.218" r="19.0418" fill="#FF0000"/>
<path fill-rule="evenodd" clip-rule="evenodd" d="M36.6544 27.7963L45.4364 34.3964C45.7267 34.6144 46.1381 34.5544 46.3556 34.2621C46.5721 33.9697 46.5126 33.5553 46.2212 33.3363L43.3619 31.1873V27.2312C43.3619 27.0844 43.245 26.9667 43.0993 26.9667H40.6104C40.4657 26.9667 40.3478 27.0844 40.3478 27.2312V28.9215L37.3592 26.6763C36.9355 26.3571 36.3518 26.3612 35.9322 26.6867L27.3411 33.3425C27.0539 33.5646 26.9995 33.98 27.2211 34.2693C27.4417 34.5586 27.8541 34.6133 28.1414 34.3901L36.6544 27.7963ZM29.0422 35.3861C28.9129 35.4863 28.838 35.6413 28.838 35.8056V44.9525C28.838 45.2449 29.073 45.4815 29.3633 45.4815H34.3184V39.1097C34.3184 38.8183 34.5534 38.5807 34.8437 38.5807H38.7268C39.0161 38.5807 39.252 38.8183 39.252 39.1097V45.4815H43.9332C44.2236 45.4815 44.4585 45.2449 44.4585 44.9525V35.8056C44.4585 35.6413 44.3826 35.4863 44.2544 35.3861L36.9694 29.7232C36.7796 29.5755 36.5159 29.5755 36.3272 29.7232L29.0422 35.3861Z" fill="white"/>
</svg>
